<svg xmlns="http://www.w3.org/2000/svg" xmlns:xlink="http://www.w3.org/1999/xlink" width="500" zoomAndPan="magnify" viewBox="0 0 375 374.999991" height="500" preserveAspectRatio="xMidYMid meet" version="1.0"><defs><g/><clipPath id="7ea4c12915"><path d="M 54.027344 65 L 336 65 L 336 328 L 54.027344 328 Z M 54.027344 65 " clip-rule="nonzero"/></clipPath><clipPath id="0368c47b8e"><path d="M 228 50 L 324 50 L 324 128 L 228 128 Z M 228 50 " clip-rule="nonzero"/></clipPath><clipPath id="50e9004393"><path d="M 230 46.042969 L 325.496094 55.878906 L 318.042969 128.246094 L 222.546875 118.410156 Z M 230 46.042969 " clip-rule="nonzero"/></clipPath><clipPath id="defd72d7f3"><path d="M 230 46.042969 L 325.496094 55.878906 L 318.042969 128.246094 L 222.546875 118.410156 Z M 230 46.042969 " clip-rule="nonzero"/></clipPath></defs><rect x="-37.5" width="450" fill="#ffffff" y="-37.499999" height="449.999989" fill-opacity="1"/><rect x="-37.5" width="450" fill="#d6cfce" y="-37.499999" height="449.999989" fill-opacity="1"/><g clip-path="url(#7ea4c12915)"><path fill="#ff7f30" d="M 332.351562 229.0625 L 326.980469 245.980469 C 312.746094 279.246094 288.75 302.828125 254.992188 316.734375 C 221.042969 330.578125 184.90625 330.832031 146.582031 317.503906 C 110.421875 303.042969 84.296875 279.804688 68.203125 247.792969 C 63.066406 237.457031 59.382812 226.65625 57.152344 215.390625 L 55.027344 198.324219 C 54.378906 186.78125 55.4375 175.144531 58.203125 163.425781 C 67.789062 127.71875 88.332031 101.019531 119.832031 83.324219 C 151.332031 65.632812 186.605469 60.980469 225.65625 69.371094 C 264.269531 79.574219 293.613281 99.699219 313.683594 129.738281 C 333.753906 159.777344 339.980469 192.886719 332.351562 229.0625 " fill-opacity="1" fill-rule="nonzero"/></g><g clip-path="url(#0368c47b8e)"><g clip-path="url(#50e9004393)"><g clip-path="url(#defd72d7f3)"><path fill="#1e1e1e" d="M 238.207031 118.683594 C 239.871094 118.523438 243.191406 118.171875 246.546875 117.964844 C 249.898438 117.761719 253.28125 117.703125 256.699219 117.796875 C 260.117188 117.890625 263.566406 118.125 266.152344 118.40625 C 268.734375 118.6875 270.441406 118.914062 272.09375 119.160156 C 273.746094 119.410156 275.34375 119.679688 276.894531 119.972656 C 278.441406 120.261719 279.933594 120.570312 281.757812 120.96875 C 283.578125 121.367188 285.761719 121.875 288.011719 122.433594 C 290.257812 122.988281 292.570312 123.597656 294.949219 124.265625 C 297.324219 124.933594 299.765625 125.660156 301.65625 126.1875 C 303.546875 126.71875 304.402344 126.886719 305.1875 127.003906 C 305.976562 127.121094 306.769531 127.183594 307.902344 127.066406 C 309.035156 126.949219 311.328125 125.726562 312.320312 121.707031 C 313.308594 117.6875 313.65625 113.652344 314.535156 108.824219 C 315.417969 103.996094 316.75 98.375 318.582031 91.992188 C 320.414062 85.605469 322.773438 78.472656 323.292969 71.90625 C 323.808594 65.339844 320.4375 64.625 319.3125 65.128906 C 318.1875 65.632812 317.660156 66.070312 317.199219 66.527344 C 316.738281 66.984375 316.261719 67.507812 315.53125 68.351562 C 314.800781 69.195312 313.5 70.726562 311.738281 72.8125 C 309.976562 74.898438 307.746094 77.542969 305.0625 80.765625 C 302.375 83.988281 299.195312 87.753906 297.34375 89.96875 C 295.492188 92.179688 295.320312 92.363281 295.265625 92.421875 C 295.210938 92.480469 295.332031 92.425781 295.71875 92.347656 C 296.105469 92.273438 296.765625 92.132812 296.976562 92.195312 C 297.191406 92.253906 297.128906 92.183594 296.808594 91.816406 C 296.492188 91.449219 296.019531 90.792969 295.453125 89.867188 C 294.890625 88.945312 294.25 87.765625 293.695312 86.652344 C 293.140625 85.539062 292.492188 84.046875 291.484375 81.59375 C 290.476562 79.140625 289.164062 75.746094 287.53125 71.433594 C 285.902344 67.121094 283.949219 61.894531 282.730469 58.636719 C 281.507812 55.375 281.230469 54.785156 280.878906 54.191406 C 280.53125 53.601562 280.058594 52.988281 279.339844 52.351562 C 278.625 51.71875 277.523438 51.15625 276.515625 50.941406 C 275.507812 50.726562 273.421875 51.066406 272.238281 51.851562 C 271.058594 52.640625 270.4375 53.382812 270.003906 54.070312 C 269.570312 54.757812 269.214844 55.449219 266.070312 63.148438 C 262.929688 70.84375 257.410156 85.515625 257.210938 86 C 257.011719 86.484375 256.832031 86.890625 256.707031 87.148438 C 256.578125 87.40625 256.539062 87.488281 256.679688 87.324219 C 256.824219 87.160156 261.484375 85.722656 261.371094 85.566406 C 261.253906 85.414062 259.535156 84.175781 256.882812 82 C 254.226562 79.828125 250.722656 76.78125 246.40625 72.886719 C 242.085938 68.992188 236.921875 64.25 236.3125 63.789062 C 235.703125 63.328125 235.019531 62.960938 234.042969 62.710938 C 233.0625 62.460938 231.773438 62.546875 230.578125 63.152344 C 229.386719 63.757812 227.832031 67.074219 228.160156 70.152344 C 228.484375 73.234375 229.253906 76.921875 230.429688 81.289062 C 231.605469 85.65625 233.199219 90.726562 234.796875 94.808594 C 236.394531 98.886719 241.414062 97.4375 240.609375 94.652344 C 240.609375 94.652344 239.785156 88.894531 238.796875 84.125 C 237.808594 79.359375 237.15625 75.429688 236.863281 72.382812 C 236.570312 69.332031 236.605469 67.214844 235.535156 69.027344 C 234.464844 70.839844 233.449219 71.195312 232.59375 71.171875 C 231.738281 71.144531 231.253906 70.972656 231.054688 70.867188 C 230.859375 70.761719 230.675781 70.609375 235.257812 75.4375 C 239.839844 80.269531 243.753906 84.214844 246.984375 87.300781 C 250.214844 90.382812 252.804688 92.625 254.96875 94.148438 C 257.128906 95.675781 259.707031 96.554688 262.503906 95.339844 C 265.304688 94.128906 265.753906 93.5 266.109375 92.894531 C 266.46875 92.289062 266.789062 91.660156 267.101562 90.976562 C 267.414062 90.292969 267.769531 89.445312 273.148438 74.71875 C 278.53125 59.988281 278.621094 59.738281 278.699219 59.542969 C 278.777344 59.351562 278.734375 59.390625 278.371094 59.726562 C 278.007812 60.066406 276.945312 60.628906 275.640625 60.710938 C 274.335938 60.792969 273.917969 60.644531 273.3125 60.273438 C 272.710938 59.902344 272.460938 59.640625 272.398438 59.542969 C 272.339844 59.449219 272.390625 59.507812 272.488281 59.671875 C 272.582031 59.832031 275.140625 65.511719 277.324219 70.324219 C 279.503906 75.136719 281.308594 79.066406 282.730469 82.125 C 284.148438 85.183594 285.199219 87.382812 285.914062 88.746094 C 286.628906 90.105469 287.464844 91.558594 288.273438 92.84375 C 289.082031 94.125 289.871094 95.226562 290.667969 96.164062 C 291.46875 97.101562 292.339844 97.898438 293.304688 98.472656 C 294.265625 99.046875 295.207031 99.351562 296.273438 99.234375 C 297.34375 99.121094 298.1875 98.832031 298.847656 98.445312 C 299.507812 98.054688 300.058594 97.605469 300.5625 97.109375 C 301.066406 96.613281 304.738281 92.621094 307.910156 89.1875 C 311.078125 85.75 313.769531 82.875 315.953125 80.546875 C 318.136719 78.214844 319.835938 76.449219 321.03125 75.230469 C 322.222656 74.015625 322.6875 73.546875 323.003906 73.25 C 323.320312 72.957031 323.480469 72.824219 323.316406 72.941406 C 323.148438 73.054688 321.957031 73.460938 319.558594 70.496094 C 317.164062 67.53125 313.878906 75.054688 311.140625 82.046875 C 308.40625 89.039062 306.292969 95.433594 304.851562 101.253906 C 303.40625 107.074219 302.605469 112.324219 302.425781 116.859375 C 302.246094 121.390625 304.089844 117.402344 305.5 116.792969 C 306.910156 116.179688 307.144531 116.179688 306.9375 116.164062 C 306.730469 116.148438 306.253906 116.082031 305.699219 115.988281 C 305.144531 115.898438 302.648438 115.257812 300.089844 114.640625 C 297.53125 114.023438 295.035156 113.464844 292.597656 112.964844 C 290.15625 112.464844 287.777344 112.03125 285.46875 111.664062 C 283.160156 111.296875 281.574219 111.066406 279.925781 110.867188 C 278.277344 110.667969 276.585938 110.492188 274.851562 110.34375 C 273.117188 110.191406 271.339844 110.0625 269.488281 109.957031 C 267.632812 109.847656 263.921875 109.792969 260.242188 109.886719 C 256.5625 109.980469 252.9375 110.246094 249.371094 110.667969 C 245.800781 111.089844 242.292969 111.683594 240.542969 112.109375 C 237.113281 112.851562 239.890625 118.371094 238.207031 118.683594 Z M 238.207031 118.683594 " fill-opacity="1" fill-rule="nonzero"/></g></g></g><g fill="#1e1e1e" fill-opacity="1"><g transform="translate(63.350765, 183.293138)"><g><path d="M 68.109375 -51.46875 L 74.859375 -44.1875 L 74.21875 -8.578125 L 64.859375 -1.296875 L 2.59375 0.265625 L 3.515625 -103.453125 L 62.640625 -100.46875 L 70.1875 -90.84375 L 71.75 -56.015625 Z M 46.78125 -61.46875 L 46.015625 -80.703125 L 28.46875 -83.4375 L 28.859375 -64.078125 Z M 49.640625 -42.109375 L 29.109375 -45.484375 L 28.984375 -20.921875 L 48.734375 -24.046875 Z M 49.640625 -42.109375 "/></g></g></g><g fill="#1e1e1e" fill-opacity="1"><g transform="translate(55.312614, 297.852751)"><g><path d="M 75.171875 -56.8125 L 82.625 -48.78125 L 81.90625 -9.46875 L 71.578125 -1.4375 L 2.875 0.28125 L 3.875 -114.1875 L 69.140625 -110.890625 L 77.46875 -100.28125 L 79.1875 -61.828125 Z M 51.640625 -67.859375 L 50.78125 -89.078125 L 31.421875 -92.09375 L 31.84375 -70.71875 Z M 54.796875 -46.484375 L 32.140625 -50.203125 L 31.984375 -23.09375 L 53.796875 -26.53125 Z M 54.796875 -46.484375 "/></g></g></g><g fill="#1e1e1e" fill-opacity="1"><g transform="translate(137.740395, 180.508772)"><g><path d="M 2.609375 -79.09375 L 24.359375 -79.796875 L 21.65625 -2 L 2 0.09375 Z M 2.609375 -79.09375 "/></g></g></g><g fill="#1e1e1e" fill-opacity="1"><g transform="translate(135.025776, 276.57032)"><g><path d="M 64.25 -95.71875 L 69.875 -89.609375 L 69.03125 -8.734375 L 64.609375 -0.234375 L 10.890625 0.125 L 2.984375 -4.546875 L 2.390625 -89.375 L 6.21875 -95.359375 Z M 27.515625 -75.609375 L 28.234375 -20.34375 L 44.390625 -19.265625 L 44.625 -74.171875 Z M 27.515625 -75.609375 "/></g></g></g><g fill="#1e1e1e" fill-opacity="1"><g transform="translate(162.686053, 180.194589)"><g><path d="M 36.84375 -50.375 L 68.90625 -50.125 L 69.390625 -9.328125 L 64.96875 -0.84375 L 11 -0.125 L 2.984375 -4.78125 L 2.390625 -89.25 L 6.21875 -94.875 L 62.6875 -95.953125 L 69.984375 -89.96875 L 68.3125 -63.046875 L 45.9375 -63.046875 L 44.265625 -75.734375 L 27.515625 -74.890625 L 28.234375 -20.578125 L 44.5 -19.5 L 44.984375 -30.875 L 36.84375 -31.703125 Z M 36.84375 -50.375 "/></g></g></g><g fill="#1e1e1e" fill-opacity="1"><g transform="translate(226.231161, 174.063996)"><g><path d="M 8.015625 -51.328125 L 56.46875 -50.375 L 56.46875 -32.1875 L 7.171875 -32.65625 Z M 8.015625 -51.328125 "/></g></g></g><g fill="#1e1e1e" fill-opacity="1"><g transform="translate(137.740395, 333.683298)"><g><path d="M 8.015625 -51.328125 L 56.46875 -50.375 L 56.46875 -32.1875 L 7.171875 -32.65625 Z M 8.015625 -51.328125 "/></g></g></g><g fill="#1e1e1e" fill-opacity="1"><g transform="translate(263.94567, 340.022936)"><g><path d="M 10.453125 -66.921875 L 73.625 -65.671875 L 73.625 -41.96875 L 9.359375 -42.59375 Z M 10.453125 -66.921875 "/></g></g></g><g fill="#1e1e1e" fill-opacity="1"><g transform="translate(207.31171, 296.701065)"><g><path d="M 60.421875 -22.609375 L 63.171875 0.125 L 2.390625 0.125 L 3.234375 -95.953125 L 28.828125 -94.390625 L 27.515625 -22.96875 Z M 60.421875 -22.609375 "/></g></g></g><g fill="#1e1e1e" fill-opacity="1"><g transform="translate(235.088807, 267.219381)"><g><path d="M 78.078125 -115.90625 L 89.671875 -100.5 L 87.078125 -15.5625 L 75.1875 -1.53125 L 3.046875 0.15625 L 3.96875 -122 Z M 35.234375 -92.421875 L 36.453125 -24.703125 L 57.640625 -29.4375 L 58.71875 -85.703125 Z M 35.234375 -92.421875 "/></g></g></g></svg>